<?xml version="1.0"?>
<svg xmlns="http://www.w3.org/2000/svg" width="700" height="700" viewBox="0 0 700 700">
  <g transform="translate(0,700) scale(0.1,-0.1)" fill="#000000" stroke="none">
    <path d="M4838 6633 c-46 -43 -193 -189 -328 -324 -209 -210 -294 -292 -463 -448 l-26 -24 -88 53 c-49 30 -114 71 -145 92 -66 44 -74 46 -84 16 -13 -43 -135 -293 -161 -330 -14 -21 -32 -38 -39 -38 -19 0 -141 101 -314 262 -398 369 -908 794 -928 774 -8 -9 57 -115 147 -239 88 -121 251 -384 251 -404 0 -21 -93 -95 -163 -129 -60 -30 -79 -34 -116 -30 -47 6 -115 -18 -142 -50 -11 -14 -8 -15 34 -9 36 6 53 3 72 -9 31 -20 115 -185 144 -283 17 -55 37 -93 85 -155 34 -46 70 -95 79 -109 l17 -26 -82 -69 c-189 -157 -277 -255 -264 -290 15 -38 72 -47 356 -54 216 -6 285 -11 320 -24 26 -10 84 -50 140 -98 108 -93 218 -167 335 -226 100 -50 236 -139 338 -221 103 -84 260 -237 286 -281 55 -92 -2 -168 -168 -225 -204 -69 -460 -73 -761 -11 -656 136 -1699 468 -2020 643 -158 86 -267 189 -326 308 -64 131 -55 243 31 395 93 163 67 184 -64 53 -292 -293 -468 -702 -537 -1248 -36 -287 -21 -727 37 -1048 82 -456 263 -940 465 -1242 343 -513 994 -1124 1365 -1281 130 -54 501 -153 671 -178 261 -39 879 -39 1170 -1 750 98 1729 751 2033 1355 144 286 261 781 340 1445 64 540 54 740 -47 970 -92 208 -107 246 -113 278 -9 46 9 52 71 23 75 -35 146 -105 188 -186 38 -72 69 -99 102 -86 57 22 -75 432 -247 763 -102 197 -108 223 -54 254 48 29 46 54 -7 78 -233 105 -265 126 -456 298 -215 194 -481 388 -589 429 -90 35 -72 7 128 -203 139 -145 227 -252 242 -295 13 -38 -15 -43 -279 -46 -298 -4 -776 12 -852 28 -29 7 -56 19 -59 27 -11 27 36 214 134 532 61 199 169 439 269 596 98 155 172 279 179 303 12 42 -22 24 -107 -55z m-2047 -854 c28 -56 37 -85 30 -92 -24 -24 -113 118 -98 158 12 29 27 14 68 -66z m-222 -134 c53 -58 57 -94 4 -44 -71 66 -86 89 -59 89 7 0 32 -20 55 -45z m2846 -675 c196 -20 255 -32 255 -55 0 -18 -81 -68 -179 -109 -177 -74 -197 -107 -101 -161 43 -24 56 -37 58 -58 4 -36 -25 -47 -111 -40 -77 7 -78 5 -42 -67 14 -27 25 -61 25 -75 0 -88 -129 -189 -434 -339 -276 -137 -436 -171 -481 -103 -28 43 -49 238 -49 459 -1 196 0 208 20 235 19 25 28 28 73 27 58 -2 97 -22 294 -150 118 -77 147 -93 147 -79 0 3 -15 45 -34 93 -19 49 -38 100 -41 115 -8 32 2 34 65 12 52 -18 50 -18 50 -1 0 26 -74 76 -142 97 -96 28 -122 75 -79 145 30 49 80 66 211 74 141 8 249 4 495 -20z m-4162 -1124 c237 -98 399 -403 353 -664 -18 -101 -34 -128 -93 -154 -39 -17 -51 -18 -92 -8 -66 16 -126 58 -217 152 -121 125 -191 237 -233 372 -43 140 -19 266 59 307 51 28 149 25 223 -5z m3702 -566 c153 -74 235 -205 235 -376 0 -91 -20 -198 -75 -399 -24 -88 -53 -199 -64 -247 -35 -149 -120 -288 -223 -364 -104 -76 -164 -78 -261 -8 -167 121 -323 496 -303 729 16 205 155 456 321 582 143 108 262 135 370 83z" />
  </g>
</svg>
